<?xml version="1.0" encoding="UTF-8" standalone="no"?>
<!DOCTYPE svg PUBLIC "-//W3C//DTD SVG 1.1//EN" "http://www.w3.org/Graphics/SVG/1.1/DTD/svg11.dtd">
<svg width="100%" height="100%" viewBox="0 0 546 150" version="1.1" xmlns="http://www.w3.org/2000/svg" xmlns:xlink="http://www.w3.org/1999/xlink" xml:space="preserve" xmlns:serif="http://www.serif.com/" style="fill-rule:evenodd;clip-rule:evenodd;stroke-linejoin:round;stroke-miterlimit:2;">
    <g transform="matrix(1,0,0,1,-34.2484,-319.601)">
        <path d="M125.46,420.48C125.46,428.44 130.97,435.78 139.54,435.78C146.48,435.78 150.15,432.31 153.41,426.8L160.96,431.08C156.68,439.04 148.52,443.73 139.34,443.73C125.06,443.73 116.49,432.92 116.49,419.25C116.49,404.97 124.04,394.16 139.13,394.16C154.02,394.16 160.96,405.18 160.96,418.84L160.96,420.27L125.46,420.27L125.46,420.48ZM151.98,413.75C150.96,406.81 146.27,402.12 139.13,402.12C132.19,402.12 127.09,407.02 125.87,413.75L151.98,413.75Z" style="fill:rgb(47,79,141);fill-rule:nonzero;"/>
    </g>
    <g transform="matrix(1,0,0,1,-34.2484,-319.601)">
        <path d="M161.16,395.8L171.56,395.8L187.27,425.38L201.96,395.8L211.96,395.8L174.22,468.83L164.02,468.83L182.38,434.35L161.16,395.8Z" style="fill:rgb(47,79,141);fill-rule:nonzero;"/>
    </g>
    <g transform="matrix(1,0,0,1,-34.2484,-319.601)">
        <path d="M219.5,420.48C219.5,428.44 225.01,435.78 233.58,435.78C240.52,435.78 244.19,432.31 247.45,426.8L255,431.08C250.72,439.04 242.56,443.73 233.38,443.73C219.1,443.73 210.53,432.92 210.53,419.25C210.53,404.97 218.08,394.16 233.17,394.16C248.06,394.16 255,405.18 255,418.84L255,420.27L219.5,420.27L219.5,420.48ZM246.02,413.75C245,406.81 240.31,402.12 233.17,402.12C226.23,402.12 221.13,407.02 219.91,413.75L246.02,413.75Z" style="fill:rgb(47,79,141);fill-rule:nonzero;"/>
    </g>
    <g transform="matrix(1,0,0,1,-34.2484,-319.601)">
        <path d="M296.82,407.83C295.19,406.2 293.35,404.77 291.52,403.95C289.69,403.13 287.44,402.52 284.99,402.52C282.54,402.52 280.5,402.93 278.67,403.95C276.83,404.77 275.41,405.99 274.18,407.62C272.96,409.25 271.94,410.88 271.32,412.92C270.71,414.96 270.3,417 270.3,419.24C270.3,421.48 270.71,423.52 271.32,425.36C272.14,427.4 273.16,429.03 274.38,430.46C275.6,431.89 277.24,433.11 279.07,433.93C280.91,434.75 282.95,435.15 285.39,435.15C287.84,435.15 290.08,434.74 291.92,433.72C293.76,432.9 295.39,431.48 296.82,429.84L303.14,436.16C300.9,438.81 298.04,440.65 294.98,441.67C291.92,442.89 288.66,443.3 285.19,443.3C281.52,443.3 278.25,442.69 275.19,441.46C272.13,440.23 269.68,438.6 267.44,436.36C265.2,434.12 263.56,431.67 262.34,428.61C261.12,425.55 260.5,422.29 260.5,418.61C260.5,414.93 261.11,411.67 262.34,408.61C263.56,405.55 265.2,402.9 267.44,400.86C269.68,398.62 272.13,396.98 275.19,395.76C278.25,394.54 281.51,393.92 285.19,393.92C288.66,393.92 291.92,394.53 294.98,395.76C298.04,396.99 300.9,398.82 303.14,401.27L296.82,407.83Z" style="fill:rgb(47,79,141);fill-rule:nonzero;"/>
    </g>
    <g transform="matrix(1,0,0,1,-34.2484,-319.601)">
        <path d="M354.34,442.31L345.16,442.31L345.16,434.97L344.96,434.97C341.29,440.27 335.78,443.74 329.25,443.74C314.97,443.74 307.01,431.91 307.01,418.65C307.01,406 315.37,394.37 329.04,394.37C335.98,394.37 341.48,398.04 345.16,403.55L345.36,403.55L345.36,395.8L354.34,395.8L354.34,442.31ZM345.58,419.05C345.58,410.07 340.07,402.32 330.48,402.32C321.3,402.32 315.79,410.28 315.79,419.05C315.79,427.82 321.09,435.98 330.48,435.98C340.27,435.98 345.58,428.23 345.58,419.05Z" style="fill:rgb(47,79,141);fill-rule:nonzero;"/>
    </g>
    <g transform="matrix(1,0,0,1,-34.2484,-319.601)">
        <path d="M375.16,403.34L375.36,403.34C377.6,397.83 382.09,394.36 388.01,394.36C390.66,394.36 393.11,395.18 395.35,396.6L391.27,404.76C389.64,403.33 387.8,402.92 385.76,402.92C376.17,402.92 374.95,411.9 374.95,419.44L374.95,442.29L365.97,442.29L365.97,395.8L374.95,395.8L374.95,403.35L375.16,403.34Z" style="fill:rgb(47,79,141);fill-rule:nonzero;"/>
    </g>
    <g transform="matrix(1,0,0,1,-34.2484,-319.601)">
        <path d="M405.96,420.48C405.96,428.44 411.47,435.78 420.04,435.78C426.98,435.78 430.65,432.31 433.91,426.8L441.46,431.08C437.18,439.04 429.02,443.73 419.84,443.73C405.56,443.73 396.99,432.92 396.99,419.25C396.99,404.97 404.54,394.16 419.63,394.16C434.52,394.16 441.46,405.18 441.46,418.84L441.46,420.27L405.96,420.27L405.96,420.48ZM432.48,413.75C431.46,406.81 426.77,402.12 419.63,402.12C412.69,402.12 407.59,407.02 406.37,413.75L432.48,413.75Z" style="fill:rgb(47,79,141);fill-rule:nonzero;"/>
    </g>
    <g transform="matrix(1,0,0,1,-34.2484,-319.601)">
        <path d="M457.16,403.55C461.04,398.04 466.54,394.37 473.48,394.37C486.94,394.37 495.31,406 495.31,418.65C495.31,431.91 487.35,443.74 473.07,443.74C466.54,443.74 460.83,440.07 457.36,434.97L457.16,434.97L457.16,468.83L448.18,468.83L448.18,395.8L457.16,395.8L457.16,403.55ZM486.54,419.05C486.54,410.07 481.03,402.32 471.44,402.32C462.26,402.32 456.75,410.28 456.75,419.05C456.75,427.82 462.05,435.98 471.44,435.98C481.24,435.98 486.54,428.23 486.54,419.05Z" style="fill:rgb(90,124,184);fill-rule:nonzero;"/>
    </g>
    <g transform="matrix(1,0,0,1,-34.2484,-319.601)">
        <path d="M511.22,403.34L511.42,403.34C513.66,397.83 518.15,394.36 524.07,394.36C526.72,394.36 529.17,395.18 531.41,396.6L527.33,404.76C525.7,403.33 523.86,402.92 521.82,402.92C512.23,402.92 511.01,411.9 511.01,419.44L511.01,442.29L502.03,442.29L502.03,395.8L511.01,395.8L511.01,403.35L511.22,403.34Z" style="fill:rgb(90,124,184);fill-rule:nonzero;"/>
    </g>
    <g transform="matrix(1,0,0,1,-34.2484,-319.601)">
        <path d="M579.56,419.26C579.56,433.34 568.54,443.94 554.67,443.94C540.8,443.94 529.78,433.13 529.78,419.26C529.78,405.18 540.8,394.58 554.67,394.58C568.75,394.37 579.56,405.18 579.56,419.26ZM538.76,419.26C538.76,428.03 545.9,435.38 554.67,435.38C563.44,435.38 570.58,427.83 570.58,419.26C570.58,410.49 563.44,403.14 554.67,403.14C545.9,402.94 538.76,410.28 538.76,419.26Z" style="fill:rgb(90,124,184);fill-rule:nonzero;"/>
    </g>
    <g transform="matrix(1,0,0,1,-34.2484,-319.601)">
        <path d="M159.12,321.74C147.29,316.23 133.01,321.74 127.3,333.98C127.1,334.39 126.89,335 126.69,335.41C126.69,335.61 126.49,335.82 126.49,336.02C126.49,336.22 126.29,336.22 126.29,336.43C119.97,354.18 127.72,383.15 128.13,384.37C128.33,384.98 128.54,385.39 129.15,385.59C129.56,385.79 130.17,385.79 130.78,385.59C131.8,384.98 159.14,372.53 168.72,356.21C168.72,356.01 168.92,356.01 168.92,355.8C169.12,355.6 169.12,355.39 169.33,355.19C169.53,354.78 169.74,354.37 169.94,353.76C175.64,341.53 170.75,327.25 159.12,321.74Z" style="fill:rgb(225,232,244);fill-rule:nonzero;"/>
    </g>
    <g transform="matrix(1,0,0,1,-34.2484,-319.601)">
        <path d="M82.21,322.76C70.58,328.47 65.69,342.96 71.6,355.2C71.8,355.61 72.01,356.22 72.42,356.63C72.62,356.83 72.62,357.04 72.83,357.24C72.83,357.44 73.03,357.44 73.03,357.65C82.82,373.77 110.36,386.01 111.38,386.41C111.79,386.61 112.4,386.61 113.01,386.41C113.42,386.21 113.83,385.8 114.03,385.19C114.44,383.97 121.78,354.79 115.25,337.25C115.25,337.05 115.05,337.05 115.05,336.84C115.05,336.63 114.85,336.43 114.85,336.23C114.65,335.82 114.44,335.21 114.24,334.8C108.32,322.36 94.04,317.05 82.21,322.76Z" style="fill:rgb(47,79,141);fill-rule:nonzero;"/>
    </g>
    <g transform="matrix(1,0,0,1,-34.2484,-319.601)">
        <path d="M34.88,383.15C31.82,395.8 40.18,408.65 53.44,411.71C53.85,411.91 54.46,411.91 54.87,411.91C55.07,411.91 55.28,411.91 55.48,412.11L55.89,412.11C74.45,414.56 101.38,400.89 102.4,400.28C102.81,400.08 103.22,399.67 103.42,399.06C103.62,398.45 103.42,398.04 103.01,397.63C102.19,396.61 84.24,372.54 66.49,366.42C66.29,366.42 66.29,366.42 66.08,366.22C65.88,366.22 65.67,366.02 65.47,366.02C65.06,365.82 64.45,365.82 64.04,365.61C51,362.75 37.74,370.5 34.88,383.15Z" style="fill:rgb(134,172,219);fill-rule:nonzero;"/>
    </g>
    <g transform="matrix(1,0,0,1,-34.2484,-319.601)">
        <path d="M52.02,458.02C59.98,468.22 75.28,469.85 85.88,461.69C86.29,461.28 86.7,461.08 87.1,460.67C87.3,460.47 87.51,460.26 87.71,460.26C87.91,460.06 87.91,460.06 88.12,459.85C101.79,447 108.11,417.62 108.32,416.19C108.52,415.58 108.32,415.17 107.91,414.76C107.5,414.35 107.09,414.15 106.48,414.15C105.05,414.15 75.06,412.93 59.15,422.92C58.95,422.92 58.95,423.12 58.74,423.12C58.54,423.32 58.33,423.32 58.13,423.53C57.72,423.73 57.31,424.14 56.91,424.35C46.1,432.72 44.06,447.82 52.02,458.02Z" style="fill:rgb(72,109,180);fill-rule:nonzero;"/>
    </g>
</svg>
